<svg xmlns="http://www.w3.org/2000/svg" viewBox="0 0 1920 1080" width="100%" height="100%">
  <rect width="1920" height="1080" fill="#1e1e2e"/>
  
  <g stroke="#2d2d3d" stroke-width="1">
    <path d="M0 180 H1920 M0 360 H1920 M0 540 H1920 M0 720 H1920 M0 900 H1920" />
    <path d="M320 0 V1080 M640 0 V1080 M960 0 V1080 M1280 0 V1080 M1600 0 V1080" />
  </g>

  <g transform="translate(650, 250) scale(1.8)" stroke="#89b4fa" stroke-width="4" stroke-linejoin="round" fill="none">
    <polygon points="50,50 250,230 510,270 295,210" fill="url(#wingGradient)" stroke-width="3" />
    <path d="M50,50 L250,230 L515,271" stroke="#f5c2e7" stroke-width="2" opacity="0.8"/>
  </g>

  <g transform="translate(100, 650)" fill="#a6adc8" font-family="monospace" font-size="14" letter-spacing="2">
    <text x="0" y="20">       ...</text>
    <text x="0" y="40">       .#.#...</text>
    <text x="0" y="60">         .@..@..</text>
    <text x="0" y="80">           .@ ..@.</text>
    <text x="0" y="100">            ..%  ..#.</text>
    <text x="0" y="120">               .#.   .=:..</text>
    <text x="0" y="140">                 .+.    .:+..</text>
    <text x="0" y="160">                  ..:      ..#..</text>
    <text x="0" y="180">                    ...      ...@</text>
    <text x="0" y="200">                     .....       ..@..</text>
    <text x="0" y="220">                        .=.           *...</text>
    <text x="0" y="240">                          .*..         ..=-..</text>
    <text x="0" y="260">                           ..% .          .......*@#-...</text>
    <text x="0" y="280"><tspan fill="#f5e0dc">                             ..@. .                 ..... .  -%@=.  ...... .</tspan></text>
    <text x="0" y="300"><tspan fill="#f5e0dc">                                .@... .   ...  ..   . ... . ... . ..... ..*@%... ..</tspan></text>
    <text x="0" y="320"><tspan fill="#f5e0dc">                                 ...               ....... . ... .. .. ..... ........</tspan></text>
  </g>

  <text x="100" y="610" fill="#cdd6f4" font-family="sans-serif" font-weight="bold" font-size="36" letter-spacing="4">ZYBUNTU OS</text>
  <text x="100" y="630" fill="#f5c2e7" font-family="monospace" font-size="14" letter-spacing="1">v1.0 // ASSET_LOG_LOADED</text>

  <defs>
    <linearGradient id="wingGradient" x1="0%" y1="0%" x2="100%" y2="100%">
      <stop offset="0%" stop-color="#89b4fa" stop-opacity="0.15"/>
      <stop offset="50%" stop-color="#cba6f7" stop-opacity="0.05"/>
      <stop offset="100%" stop-color="#1e1e2e" stop-opacity="0.8"/>
    </linearGradient>
  </defs>
</svg>
